# xmcd CD database file
# Copyright (C) 1996 Ti Kan
#
# Track frame offsets:
# 	183
# 	14708
# 	28205
# 	41778
# 	55030
# 	69283
# 	83888
# 	99225
# 	112120
# 	124713
# 	137958
# 	152668
# 	168303
# 	181815
# 	195363
# 	211338
# 	223313
# 	236283
# 	250463
# 	264183
#
# Disc length: 3704 seconds
#
# Revision: 1
# Processed by: cddbd v1.4b41PL1 Copyright (c) Steve Scherf et al.
# Submitted via: DiscPlay 3.4.1
#
DISCID=190e7614
DTITLE=Bessie Smith - Blue Spirit Blues
DYEAR=1900
DGENRE=
TTITLE0=I'm Down In The Dumps
TTITLE1=Blue Spirit Blues
TTITLE2=Kitchen Man
TTITLE3=Foolish Man Blues
TTITLE4=Thinking Blues
TTITLE5=Devil's Gonna Get You
TTITLE6=Send Me To The 'Lectric Chair
TTITLE7=I'm Wild At That Thing
TTITLE8=You've Got To Give Me Some
TTITLE9=Standing In The Rain Blues
TTITLE10=He's Got Me Goin'
TTITLE11=Do Your Duty
TTITLE12=Dyin' By The Hour
TTITLE13=Lock And Key
TTITLE14=Gimme A Pigfoot
TTITLE15=Take Me For A Buggy Ride
TTITLE16=I Used To Be Your Sweet Mama
TTITLE17=Trombone Cholly
TTITLE18=Alexander's Ragtime Band
TTITLE19=A Good Man Is Hard To Find
EXTD=
EXTT0=
EXTT1=
EXTT2=
EXTT3=
EXTT4=
EXTT5=
EXTT6=
EXTT7=
EXTT8=
EXTT9=
EXTT10=
EXTT11=
EXTT12=
EXTT13=
EXTT14=
EXTT15=
EXTT16=
EXTT17=
EXTT18=
EXTT19=
PLAYORDER=
